<?xml version="1.0" ?><svg contentScriptType="text/ecmascript" contentStyleType="text/css" enable-background="new 0 0 220 227" height="24.0px" id="Layer_1" preserveAspectRatio="xMidYMid meet" version="1.0" viewBox="100.0 95.61050033569336 24.0 24.0" width="24.0px" xml:space="preserve" xmlns="http://www.w3.org/2000/svg" xmlns:xlink="http://www.w3.org/1999/xlink" zoomAndPan="magnify"><g><path d="M100,101.333h18.958v-4.612H100V101.333z M116.507,98.066c0.489,0,0.888,0.398,0.888,0.889   c0,0.489-0.396,0.888-0.888,0.888c-0.492,0-0.89-0.398-0.89-0.888C115.617,98.465,116.015,98.066,116.507,98.066z M113.525,98.149   c0.441,0,0.804,0.38,0.804,0.847c0,0.467-0.36,0.847-0.804,0.847c-0.444,0-0.807-0.38-0.807-0.847   C112.72,98.529,113.081,98.149,113.525,98.149z M110.507,98.024c0.446,0,0.807,0.436,0.807,0.972s-0.358,0.972-0.807,0.972   c-0.44,0-0.802-0.436-0.802-0.972S110.064,98.024,110.507,98.024z" fill="#434343"/><rect fill="#434343" height="4.612" width="3.792" x="120.208" y="96.721"/><rect fill="#434343" height="15.833" width="3.792" x="120.208" y="102.667"/><path d="M100,118.5h18.958v-15.833H100V118.5z M104.822,105.292h10.345v1.363h-10.345V105.292z M102.845,108.458   h14.363v7.125h-14.363V108.458z" fill="#434343"/></g></svg>