<svg xmlns="http://www.w3.org/2000/svg" xmlns:xlink="http://www.w3.org/1999/xlink" xmlns:a="http://ns.adobe.com/AdobeSVGViewerExtensions/3.0/" version="1.1" width="46" height="81" viewBox="-0.5 0 46 81" enable-background="new -0.5 0 46 81" xml:space="preserve">
<defs>
</defs>
<path d="M18.9,50.3l3-4c-0.129,0.173-0.354,0.242-0.558,0.175C21.138,46.406,21,46.215,21,46v4c0,0.215,0.138,0.406,0.342,0.475  c0.204,0.067,0.429-0.002,0.558-0.175l3-4c-0.13,0.173-0.354,0.242-0.559,0.175C24.138,46.406,24,46.215,24,46v4  c0,0.215,0.138,0.406,0.342,0.475c0.204,0.067,0.429-0.002,0.559-0.175l3-4c-0.13,0.173-0.354,0.242-0.559,0.175  C27.138,46.406,27,46.215,27,46v4c0,0.215,0.138,0.406,0.342,0.475c0.204,0.067,0.429-0.002,0.559-0.175l3-4  c-0.13,0.173-0.354,0.242-0.559,0.175C30.138,46.406,30,46.215,30,46v4c0,0.215,0.138,0.406,0.342,0.475  c0.204,0.067,0.429-0.002,0.559-0.175l3-4c-0.13,0.173-0.354,0.242-0.559,0.175C33.138,46.406,33,46.215,33,46v4l0,0  c0,0.276,0.224,0.5,0.5,0.5S34,50.276,34,50l0,0v-4c0-0.215-0.138-0.406-0.342-0.475c-0.204-0.067-0.429,0.002-0.559,0.175l-3,4  c0.13-0.173,0.354-0.242,0.559-0.175C30.862,49.594,31,49.785,31,50v-4c0-0.215-0.138-0.406-0.342-0.475  c-0.204-0.067-0.429,0.002-0.559,0.175l-3,4c0.13-0.173,0.354-0.242,0.559-0.175C27.862,49.594,28,49.785,28,50v-4  c0-0.215-0.138-0.406-0.342-0.475c-0.204-0.067-0.429,0.002-0.559,0.175l-3,4c0.13-0.173,0.354-0.242,0.559-0.175  C24.862,49.594,25,49.785,25,50v-4c0-0.215-0.138-0.406-0.342-0.475c-0.204-0.067-0.429,0.002-0.559,0.175l-3,4  c0.129-0.173,0.354-0.242,0.558-0.175C21.862,49.594,22,49.785,22,50v-4c0-0.215-0.138-0.406-0.342-0.475  c-0.204-0.067-0.429,0.002-0.558,0.175l-3,4l0,0c-0.166,0.221-0.121,0.534,0.1,0.7C18.421,50.565,18.734,50.521,18.9,50.3L18.9,50.3  z"/>
<path d="M33,37.5c0,1.103-0.897,2-2,2s-2-0.897-2-2s0.897-2,2-2S33,36.397,33,37.5z M31,34.5c-1.654,0-3,1.346-3,3s1.346,3,3,3  s3-1.346,3-3S32.654,34.5,31,34.5z"/>
<rect x="24.5" y="42" width="9" height="1"/>
<rect x="21.5" y="53" width="12" height="1"/>
<rect x="21.5" y="55" width="12" height="1"/>
<rect x="21.5" y="57" width="12" height="1"/>
<rect x="24.5" y="62" width="9" height="1"/>
<path d="M39.058,21.425l-4.764-1.786C31.221,18.486,29,17.654,29,13.5L28.999,11H29.5V9.58h-0.501V9H29.5V7.939  c0.248-0.014,0.447-0.22,0.447-0.478S29.748,6.998,29.5,6.984V6.938c0.248-0.014,0.447-0.22,0.447-0.477S29.748,5.997,29.5,5.983  V5.938c0.248-0.014,0.447-0.22,0.447-0.478S29.748,4.997,29.5,4.982V1.5C29.5,0.671,28.828,0,28,0H17c-0.829,0-1.5,0.671-1.5,1.5  v3.482c-0.249,0.015-0.447,0.221-0.447,0.478s0.199,0.462,0.447,0.478v0.045c-0.249,0.015-0.447,0.221-0.447,0.478  s0.199,0.462,0.447,0.477v0.046c-0.249,0.015-0.447,0.221-0.447,0.478s0.199,0.462,0.447,0.478V9H16v0.58h-0.5V11H16v2.5  c0,4.154-2.221,4.986-5.294,6.139l-4.764,1.786C3.176,22.462,0,24.375,0,30v42c0,5.577,2.631,6.536,6.349,7.283  C10.425,80.102,15.708,80.5,22.5,80.5c6.792,0,12.075-0.398,16.151-1.217C42.368,78.536,45,77.577,45,72V30  C45,24.375,41.824,22.462,39.058,21.425z M9,32.544c1.163,0.094,4.113,0.315,7.671,0.457l-0.078,0.029  c0.02,0.053,1.838,4.969,0.538,9.889c-0.479,1.812-1.273,3.231-1.974,4.484c-1.292,2.309-2.408,4.303-1.011,7.495  c0.508,1.161,1.085,2.197,1.643,3.199c1.666,2.991,3.102,5.588,2.079,10.271c-4.147-0.22-7.688-0.651-8.868-0.806V32.544z   M16.663,57.611c-0.546-0.981-1.112-1.996-1.601-3.113c-1.198-2.737-0.29-4.36,0.968-6.606c0.73-1.305,1.557-2.784,2.068-4.717  c1.193-4.516-0.031-8.879-0.444-10.138c1.559,0.053,3.204,0.088,4.846,0.088c5.845,0,11.736-0.438,13.5-0.581v35.019  c-1.606,0.21-7.582,0.938-13.5,0.938c-1.217,0-2.436-0.032-3.621-0.083C19.912,63.466,18.337,60.616,16.663,57.611z M22.5,17.5  c-2.951,0-4.894-0.264-5.788-0.5c0.895-0.235,2.837-0.5,5.788-0.5c2.951,0,4.894,0.264,5.788,0.5  C27.394,17.236,25.451,17.5,22.5,17.5z M17,9h10.999v0.58H17V9z M17,13.5V11h10.999L28,13.5c0,0.983,0.131,1.796,0.347,2.5  c-1.56-0.416-4.087-0.5-5.847-0.5c-1.759,0-4.287,0.084-5.846,0.5C16.869,15.296,17,14.483,17,13.5z"/>
</svg>