<svg xmlns="http://www.w3.org/2000/svg" xmlns:xlink="http://www.w3.org/1999/xlink" xml:space="preserve" width="100px" height="100px" style="shape-rendering:geometricPrecision; text-rendering:geometricPrecision; image-rendering:optimizeQuality; fill-rule:evenodd; clip-rule:evenodd" viewBox="0 0 100 100">
 <defs>
  <style type="text/css">
   
    .fil0 {fill:black}
   
  </style>
 </defs>
 <g id="Layer_x0020_1">
  <metadata id="CorelCorpID_0Corel-Layer"/>
  <g id="_380255048">
   <path id="_380236640" class="fil0" d="M9.93669 23.7687l79.2691 0 -2.06458 12.0036c2.70002,2.9516 4.51067,8.37763 4.51067,14.5844 0,9.35913 -4.11499,16.9454 -9.19023,16.9454 -0.246852,0 -0.491342,-0.0177167 -0.734651,-0.0543311l-4.08074 23.7274 -55.0717 0 -12.6379 -67.2064zm48.539 38.6743l23.4073 0 -3.44648 9.47842 -19.9608 0 0 -2.44963c-15.6698,-1.61222 -30.3061,-12.6757 -44.8539,-38.2657l3.79846 -3.29176c10.5875,20.9659 24.1644,34.218 41.0554,36.6582l0 -2.12954zm27.5683 -20.2903l-3.21971 18.7159c2.98585,-0.346066 5.35044,-4.91933 5.35044,-10.5119 0,-3.31538 -0.831503,-6.27288 -2.13073,-8.204z"/>
   <path id="_375271008" class="fil0" d="M27.8447 7.83668c-1.68427,-0.876385 -3.59885,-1.37245 -5.62918,-1.37245 -6.08154,0 -11.1237,4.44689 -12.0521,10.2674l5.21106 0c0.844495,-2.98349 3.58704,-5.16973 6.841,-5.16973 1.22836,0 2.38466,0.311813 3.39333,0.86103 1.66064,0.904732 2.92089,2.45199 3.44648,4.3087l0.741738 0 4.47051 0c-0.366145,-2.28899 -1.36773,-4.36539 -2.81813,-6.04257 1.5945,-2.1697 4.16578,-3.57877 7.06541,-3.57877 2.45199,0 4.67012,1.00749 6.25989,2.6327 -2.22285,1.74686 -3.87877,4.1835 -4.64295,6.98864l4.86264 0c0.481894,-1.09725 1.18229,-2.07758 2.04569,-2.88427 1.14332,-1.06772 2.57128,-1.83309 4.15869,-2.16734 0.321262,-0.0685045 0.650793,-0.119292 0.983866,-0.151182 0.275199,-0.0248033 0.553941,-0.0389767 0.835046,-0.0389767 1.34883,0 2.62561,0.304727 3.76657,0.849219 1.89332,0.90355 3.41223,2.46616 4.25791,4.39255l4.86146 0c-0.936622,-3.43703 -3.21144,-6.32249 -6.22918,-8.06109 1.45277,-1.07127 3.24806,-1.70316 5.19099,-1.70316 3.40751,0 6.36147,1.94647 7.80951,4.78823 0.375594,0.734651 0.64843,1.52954 0.803156,2.36695l4.64649 0c-0.17008,-1.42206 -0.56339,-2.77561 -1.1445,-4.02405 0.289372,-0.0283467 0.583469,-0.0437011 0.881109,-0.0437011 4.11972,0 7.57447,2.8453 8.50991,6.67682l4.68311 0c-1.0004,-6.38627 -6.52564,-11.2713 -13.193,-11.2713 -1.32993,0 -2.61498,0.194883 -3.8268,0.557485 -2.39175,-2.26065 -5.61855,-3.64609 -9.16897,-3.64609 -4.04295,0 -7.66541,1.79647 -10.115,4.63468 -0.566934,-0.0732289 -1.14568,-0.111024 -1.73269,-0.111024 -1.42088,0 -2.7886,0.222049 -4.07365,0.633076 -2.44726,-3.05672 -6.2091,-5.01382 -10.4292,-5.01382 -4.36066,0 -8.23235,2.09057 -10.6702,5.32209z"/>
   <rect id="_373957832" class="fil0" x="7.6367" y="18.071" width="84.7266" height="2.72852"/>
   <rect id="_380248904" class="fil0" x="22.4291" y="94.7558" width="55.144" height="2.87224"/>
  </g>
 </g>
</svg>