<svg xmlns="http://www.w3.org/2000/svg" xmlns:xlink="http://www.w3.org/1999/xlink" version="1.1" id="Your_Icon" x="0px" y="0px" width="100px" height="100px" viewBox="0 0 100 100" enable-background="new 0 0 100 100" xml:space="preserve">
<path fill-rule="evenodd" clip-rule="evenodd" d="M77.351,75.692l-0.083,0.027c-0.005-0.015-0.002-0.028-0.009-0.043  c-3.107-7.159-6.436-14.341-9.653-21.286c-1.058-2.281-2.113-4.563-3.164-6.844c1.141-2.436-1.01-4.099-2.394-5.177  c-0.168-0.361-0.341-0.718-0.513-1.063c-0.507-1.022-0.979-1.994-1.211-3.054l0.121,0.033c0.085-2.825-0.673-4.805-2.837-5.382  c-0.062-0.136-0.119-0.272-0.182-0.407c-0.214-0.458-0.417-0.89-0.534-1.334c-0.063-0.222-0.29-0.354-0.512-0.294  c-0.224,0.058-0.355,0.289-0.294,0.51c0.137,0.516,0.364,1.377,0.584,1.846C56.732,33.357,56.79,34,56.851,34h-0.002  c-0.844,1-2.063,1.156-3.237,1.781c-3.828-3.67-6.675-10.877-7.553-15.293c3.335-0.19,3.197-3.03,5.035-4.407  c-1.321-2.989,0.917-6.683-1.08-9.401l-0.198,0.043c0.111-0.195,0.19-0.398,0.239-0.546c0.04-0.122-0.025-0.259-0.147-0.3  c-0.124-0.038-0.253,0.026-0.293,0.148c-0.024,0.074-0.053,0.14-0.079,0.207c-0.372-0.173-0.214-0.88-0.239-1.398  c-0.32-0.969-1.005,0.622-0.721,1.439c-4.082-1.845-6.52,0.801-10.43,1.079c-0.694,1.122-1.38,3.953-0.361,4.676  c2.941,0.596,2.191-2.944,3.239-3.238c0.189,2.109-1.008,2.831-1.8,3.959c0.22,2.058,0.606,3.949,1.8,5.034  c-1.075,2.564-5.39,4.565-4.317,10.431l0.141,0.048c-0.536,0.919-0.713,2.07-0.875,3.185c-0.152,1.021-0.32,2.063-0.751,2.929  c-1.545,1.391,0.206,3.965-0.313,6.427c2.192-0.448,5.48-0.355,8.993-0.358c0.785-0.055,0.771-0.907,0.719-1.799  c1.44,1.658,4.714,0.026,6.786,0.001c0.148,0.105,0.324,0.218,0.513,0.324l-0.105,0.035c1.325,1.672,2.574,3.421,4.317,4.674  c0.099-0.739,0.961-0.358,1.438-0.72C57.369,41.117,55.905,40,55.77,39c0.598,0,1.198,0,1.798,0l-0.022-0.434  c0.357,0.055,0.705,0.246,1.039,0.256L58.808,39c0.007,0,0.014,0,0.02,0c0.062,0,0.118,0,0.174,0h0.005  c0.021,0,0.055,0.066,0.36,0.002l0.039-0.229c0.269,1.128,0.765,2.064,1.256,3.056c0.195,0.391,0.396,0.749,0.577,1.149  l-0.074,0.004c-1.869,0.552-3.257-0.232-4.674,1.066c0.619,2.498,3.226,3.006,6.114,3.235c-0.8,1.07,0.031,1.14,0.984,0.749  c1.039,2.259,2.084,4.512,3.13,6.771c3.167,6.836,6.439,13.898,9.503,20.944c-1.797,1.579-1.907,4.849-1.756,8.376  c-0.133,0.345-0.399,0.645-0.693,0.94l-0.02-0.019c-0.889,0.313-2.786,0.701-3.597,0c-1.449,0.937-0.943,1.852-3.236,2.157  c0.094,1.104,0.78,1.617,1.079,2.517l-0.012,0.004c1.872,2.487,10.771,9.548,8.717,3.105l-0.088-0.067  c0.094-0.019,0.184-0.042,0.276-0.058c0.539-0.094,1.048-0.18,1.42-0.514c0.009-0.009,0.014-0.021,0.021-0.028l0.194,0.189  c2.581,0.116,2.896-1.985,4.538-2.791c0.002-0.084-0.011-0.154-0.021-0.226C87.339,86.301,80.359,77.292,77.351,75.692z   M58.707,37.186l-0.091-0.003c-0.245-0.006-0.479-0.021-0.708-0.044C57.469,35.769,59.999,36.782,58.707,37.186z"/>
<path fill-rule="evenodd" clip-rule="evenodd" d="M61.635,87.692c-1.687-0.93-2.587-0.972-3.078-1.648  c-5.958-5.439-3.852-13.427-6.475-20.091c-0.132-0.336-0.104-0.508-0.143-0.963L53.58,65c0,0,0.99,0,1.471,0  c-4.702-8-5.82-16.713-10.071-23.607c-3.849-0.332-8.912,0.442-11.498-0.349c-0.492-0.711-1.391-1.026-2.059-0.847  c-0.542,0.147-0.895,0.526-0.997,1.076c-0.081,0.061-0.152,0.121-0.193,0.223c-0.061,0.146-0.116,0.295-0.172,0.449  c-0.285,0.799-0.451,1.128-0.945,1.157c-0.053,0.004-0.098,0.022-0.146,0.038c-0.179-0.072-0.365-0.11-0.533-0.142  c-0.433-0.078-0.527-0.128-0.563-0.292c-0.041-0.188-0.227-0.307-0.415-0.266c-0.188,0.04-0.306,0.227-0.266,0.415  c0.141,0.648,0.729,0.755,1.116,0.826c0.096,0.019,0.184,0.039,0.268,0.061c0.008,0.068,0.024,0.135,0.053,0.194  c-0.381,0.37-1.044,0.382-1.8,0.344c-0.151-0.006-0.306,0.118-0.314,0.283c-0.007,0.165,0.119,0.307,0.284,0.314  c0.175,0.008,0.367-0.115,0.566-0.115c0.636,0,1.339,0.236,1.782-0.764c0.001,0,0.002,0,0.003,0c0.013,0,0.025,0.133,0.039,0.131  c1.309-0.086,1.705-1.128,1.967-1.864c0.019-0.05,0.036-0.062,0.054-0.11c0.112,0.018,0.224,0.05,0.332,0.064  c0.21,0.027,0.411,0.07,0.607,0.116c1.159,0.996-0.16,1.617-0.438,2.866c-0.258,0.528-0.414,1.072-0.556,1.598  c-0.104,0.402-0.205,0.782-0.353,1.146c-0.049,0.122-0.047,0.246-0.019,0.365c-1.372,5.662-2.167,11.902-5.23,15.87  c0.196,1.124,2.379,1.23,2.157,1.335c-0.904,0.43-0.969,0.959-1.781,2.222c-1.301,1.205-2.293,2.651-3.247,4.057  c-0.196,0.289-0.393,0.579-0.591,0.865c-0.025,0.037-0.021,0.08-0.025,0.122c-1.863,2.5-2.358,6.37-5.146,7.946  c0,0-2.099,1.439-1.02,3.298c0,0,0.409,0.479,1.021,1.283c0.01,0.06,0.023,0.118,0.051,0.169c1.71,1.877,2.674,2.857,3.194,3.942  c0.719,0,0.961,0,0.719-0.96c-0.378-1.888-0.927-2.604-0.728-3.415c0.306-8.063,7.768-11.61,11.162-17.916  c0.262-0.484,0.498-0.986,0.707-1.507l0.005-0.002c5.76,0.148,13.312-1.441,15.97-0.875l-0.09,0.018  c-0.258,0.968,0.712,4.263,1.152,5.699c0.08,1.771,0.544,3.462,1.001,5.099c0.093,0.337,0.188,0.674,0.278,1.01  c0.013,0.042,0.05,0.066,0.077,0.098c0.706,3.036,3.343,5.914,2.746,9.06c0,0-0.256,2.533,1.86,2.908c0,0,0.63-0.004,1.639,0.049  c0.052,0.032,0.105,0.058,0.163,0.07c1.969-0.132,3.908-0.198,5.072,0.105C62.367,88.313,62.523,88.128,61.635,87.692z M32.75,41.5  c-0.119,0-0.24,0-0.36,0l0.033,0.114c-0.266-0.07-0.527-0.111-0.78-0.146c-0.128-0.017-0.25-0.026-0.372-0.047  c-0.022-0.042-0.045-0.083-0.078-0.118c0.064-0.215,0.204-0.364,0.43-0.426c0.42-0.114,1.024,0.091,1.293,0.578L32.75,41.5z"/>
</svg>