<svg xmlns="http://www.w3.org/2000/svg" xmlns:xlink="http://www.w3.org/1999/xlink" version="1.1" id="Layer_1" x="0px" y="0px" width="90px" height="90px" viewBox="0 0 90 90" enable-background="new 0 0 90 90" xml:space="preserve">
<path d="M72.128,33.893c-3.588-4.633-3.967-11.439-3.967-11.439L68.157,7.207v-1.2c0-1.45-0.453-2.664-1.231-3.6  c-1.298-1.841-3.218-1.988-3.758-1.988c-0.186,0-0.346,0.013-0.482,0.026c-0.197-0.013-0.386-0.045-0.593-0.045  c-0.385,0-0.699,0.026-0.89,0.046h-13.51h-1.131c-1.102,0-2.116,0.446-2.854,1.256c-1.049,1.152-1.355,2.827-1.421,4.105  c-0.056,0.755-0.004,1.371,0.028,1.634c0.001,0.019,0.005,0.05,0.006,0.084c0.003,0.04,0.008,0.096,0.012,0.154  c0.001,0.044,0.005,0.087,0.009,0.142c0.009,0.143,0.018,0.322,0.028,0.529c0.001,0.025,0.003,0.051,0.004,0.078  c0.013,0.237,0.024,0.513,0.035,0.823c0.001,0.015,0.001,0.027,0.001,0.042c0.012,0.319,0.021,0.674,0.029,1.058  c0,0.014,0,0.031,0,0.046c0.008,0.386,0.012,0.801,0.014,1.24c0,0.025,0,0.053,0,0.079c0.002,0.439-0.001,0.901-0.01,1.386  c0,0.033-0.001,0.067-0.001,0.099c-0.009,0.489-0.023,0.996-0.043,1.524c-0.002,0.03-0.003,0.059-0.003,0.088  c-0.022,0.541-0.051,1.097-0.087,1.667c-0.189,2.948-3.269,3.145-3.817,3.153c-7.472-0.167-13.342,2.012-17.572,6.456  c-7.212,7.581-6.732,18.957-6.712,19.323v35.97c0,4.487,3.649,8.133,8.132,8.133H70.99c4.484,0,8.13-3.646,8.13-8.133V57.744  C79.12,47.504,75.607,38.386,72.128,33.893z M58.23,12.947v-1.403h2.348v1.403H58.23z M54.35,12.947v-1.403h2.344v1.403H54.35z   M50.465,12.947v-1.403h2.346v1.403H50.465z M47.058,12.947c0.008-0.492,0.01-0.958,0.008-1.403h1.865v1.403H47.058z M62.114,11.544  h1.438v1.403h-1.438V11.544z M61.347,5.056h1.37c0.244,0.037,0.416,0.099,0.537,0.177c0.135,0.302,0.296,0.911,0.296,1.975v2.801  H47.045c-0.042-1.79-0.133-2.916-0.14-3.017c-0.033-0.337-0.025-0.76,0.008-1.159c0.048-0.279,0.119-0.526,0.229-0.649  c0.1-0.114,0.419-0.128,0.552-0.128H61.347z M74.513,81.383c0,1.945-1.582,3.525-3.522,3.525H22.341  c-1.943,0-3.524-1.58-3.524-3.525l-0.002-36.08c-0.004-0.099-0.386-9.931,5.465-16.057c3.175-3.324,7.696-5.011,13.436-5.011  l0.727,0.008c2.763,0,8.088-1.56,8.468-7.465c0.021-0.339,0.04-0.672,0.058-1.001c0.021-0.444,0.037-0.871,0.053-1.293h16.531  l0.002,8.076c0.014,0.338,0.424,8.333,4.932,14.152c2.901,3.75,6.027,11.93,6.027,21.033V81.383z"/>
<path d="M28.624,50.992c4.498,0,16.33-5.772,16.33-18.836c-0.072-1.811-1.516-4.501-5.195-4.501l-0.229-0.002  c-2.48,0-9.074,0-13.172,4.68c-2.734,3.119-3.735,7.661-2.979,13.5c0.001,0.557,0.114,2.328,1.406,3.679  C25.43,50.19,26.621,50.992,28.624,50.992z M28.577,34.277c3.216-3.672,8.836-3.672,10.952-3.672h0.229  c1.916,0,2.21,1.185,2.246,1.609c0,11.068-10.156,15.831-13.381,15.831c-0.776,0-1.331-0.182-1.697-0.56  c-0.511-0.521-0.605-1.396-0.6-1.669c0.005-0.09,0.002-0.176-0.01-0.261C25.651,40.542,26.411,36.749,28.577,34.277z"/>
<path d="M63.33,55.535H29.795c-2.823,0-5.12,2.297-5.12,5.122v13.295c0,2.823,2.297,5.122,5.12,5.122H63.33  c2.823,0,5.122-2.299,5.122-5.122V60.657C68.452,57.832,66.153,55.535,63.33,55.535z M66.914,73.952  c0,1.977-1.607,3.584-3.584,3.584H29.795c-1.977,0-3.584-1.607-3.584-3.584V60.657c0-1.979,1.608-3.588,3.584-3.588H63.33  c1.977,0,3.584,1.609,3.584,3.588V73.952z"/>
</svg>