<svg xmlns="http://www.w3.org/2000/svg" xmlns:xlink="http://www.w3.org/1999/xlink" version="1.1" id="Camada_1" x="0px" y="0px" width="90px" height="90px" viewBox="0 0 90 90" enable-background="new 0 0 90 90" xml:space="preserve">
<path d="M57.515,9.61h2.262c0,0-1.539,9.294,1.885,15.192h-1.203c-3.637-3.702-4.615-8.438-4.907-10.125  c-0.102-0.589-0.831-0.637-0.831-0.637h-2.076l2.666-3.065C55.319,10.965,56.337,9.825,57.515,9.61z M52.18,27.967H36.354  l-9.106,18.64c0,0-1.021,3.122-1.021,4.048v6.431v29.75c0,1.748,1.417,3.165,3.165,3.165h29.75c1.748,0,3.166-1.417,3.166-3.165  v-29.75v-6.431c0-0.926-1.021-4.048-1.021-4.048L52.18,27.967z M36.354,27.334H52.18v-1.266H36.354V27.334z M38.253,17.839h0.633  v7.596h1.266v-7.596h0.633v7.596h1.266v-7.596h0.633v7.596h1.266v-7.596h0.633v7.596h1.266v-7.596h0.633v7.596h1.266v-7.596h0.633  v7.596h1.267v-7.596h0.633v7.596h1.266v-7.596c0-0.35-0.283-0.633-0.633-0.633H37.621c-0.35,0-0.633,0.284-0.633,0.633v7.596h1.266  V17.839z M64.839,8.977l3.799-0.633V1.893l-3.799-0.633V8.977z M63.573,0.626H62.94c-0.35,0-0.633,0.283-0.633,0.633v7.718  c0,0.349,0.283,0.633,0.633,0.633h0.633c0.35,0,0.633-0.284,0.633-0.633V1.259C64.206,0.91,63.923,0.626,63.573,0.626z   M29.496,12.205c-0.848,1.111-1.157,1.807-0.059,1.807c1.834,0,5.294,0,6.889,0c2.225,0,2.562,2.562,2.562,2.562h10.761l5.211-5.99  c0,0,1.405-1.606,3.03-1.606c1.624,0,3.786,0,3.786,0V1.259h-0.634c0,0-20.686,0-22.471,0c-1.655,0-2.214,1.088-2.214,1.088  L29.496,12.205z"/>
</svg>