<?xml version="1.0" ?><svg contentScriptType="text/ecmascript" contentStyleType="text/css" enable-background="new 0 0 220 227" height="23.770004272460938px" id="Layer_1" preserveAspectRatio="xMidYMid meet" version="1.0" viewBox="97.61499786376953 86.5 23.770004272460938 23.770004272460938" width="23.770004272460938px" xml:space="preserve" xmlns="http://www.w3.org/2000/svg" xmlns:xlink="http://www.w3.org/1999/xlink" zoomAndPan="magnify"><g><path d="M114,86.5h-9c-0.553,0-1,0.456-1,1.02v4.839c0,0.562,0.447,1.019,1,1.019h9c0.553,0,1-0.456,1-1.019V87.52   C115,86.956,114.553,86.5,114,86.5z M114.042,90.541h-1.084v-1.166h1.084V90.541z" fill="#434343"/><path d="M114,94.541h-9c-0.553,0-1,0.451-1,1.01v12.861c0,0.558,0.447,1.01,1,1.01h0.021v0.848h1.959v-0.848h5.041   v0.848h1.959v-0.848H114c0.553,0,1-0.452,1-1.01V95.551C115,94.992,114.553,94.541,114,94.541z M114.042,98.541h-1.084v-2.166   h1.084V98.541z" fill="#434343"/></g></svg>