<svg xmlns="http://www.w3.org/2000/svg" xmlns:xlink="http://www.w3.org/1999/xlink" version="1.1" id="Layer_1" x="0px" y="0px" width="100px" height="100px" viewBox="0 0 100 100" enable-background="new 0 0 100 100" xml:space="preserve">
<path fill="#000000" d="M72.317,4.812c1.466,0,2.648,1.157,2.648,2.623v23.801H76.2V13.088c0-1.438,1.155-2.621,2.621-2.621  c1.438,0,2.62,1.182,2.62,2.621v18.354c0.387,0.076,0.773,0.206,1.157,0.332v-13.03c0-1.438,1.157-2.623,2.623-2.623  c1.438,0,2.621,1.185,2.621,2.623v27.22c0,0.103,0,0.233-0.051,0.333v3.497c0,2.751-1.388,5.219-3.521,6.683l2.312,33.57  c0.9,0.462,1.415,1.026,1.415,1.747c0,2.801-8.045,3.394-14.782,3.394c-6.76,0-14.805-0.593-14.805-3.394  c0-0.721,0.54-1.311,1.466-1.772l2.39-34.419c-3.007-1.902-6.528-5.116-6.528-8.663V32.06c0-1.313,2.698-2.392,4.011-2.392  c0.668,0,1.669,0.258,2.493,0.72c0.437,0.206,0.848,0.487,1.132,0.796V13.113c0-1.463,1.182-2.646,2.62-2.646  s2.648,1.182,2.648,2.646v18.124h1.055V7.436C69.697,5.97,70.879,4.812,72.317,4.812 M73.216,92.617  c4.963,0,8.535-0.412,10.565-0.823c-2.03-0.412-5.577-0.823-10.565-0.823c-4.985,0-8.557,0.411-10.588,0.823  C64.659,92.205,68.23,92.617,73.216,92.617 M72.317,1.812c-3.099,0-5.62,2.522-5.62,5.623v0.076  c-0.23-0.029-0.465-0.043-0.703-0.043c-3.099,0-5.62,2.533-5.62,5.646v13.588c-0.215-0.022-0.424-0.033-0.625-0.033  c-2.517,0-7.011,1.802-7.011,5.392v14.88c0,4.597,3.76,8.196,6.417,10.164l-2.172,31.274c-1.334,1.209-1.572,2.587-1.572,3.416  c0,5.619,8.558,6.394,17.805,6.394c9.235,0,17.782-0.774,17.782-6.394c0-0.813-0.23-2.167-1.52-3.366l-2.109-30.617  c2.169-2.076,3.423-4.964,3.423-8.017v-3.141c0.051-0.309,0.051-0.556,0.051-0.689v-27.22c0-3.101-2.521-5.623-5.621-5.623  c-0.265,0-0.525,0.019-0.78,0.054v-0.086c0-3.099-2.521-5.621-5.62-5.621c-0.291,0-0.576,0.022-0.855,0.065V7.436  C77.966,4.335,75.432,1.812,72.317,1.812L72.317,1.812z"/>
<path fill="#000000" d="M27.678,4.812c1.44,0,2.622,1.157,2.622,2.623v23.801h1.054V13.113c0-1.463,1.208-2.646,2.648-2.646  c1.438,0,2.62,1.182,2.62,2.646v18.071c0.284-0.309,0.693-0.59,1.132-0.796c0.821-0.462,1.825-0.72,2.493-0.72  c1.31,0,4.011,1.079,4.011,2.392v14.88c0,3.547-3.524,6.76-6.532,8.663l2.393,34.419c0.926,0.462,1.463,1.052,1.463,1.772  c0,2.801-8.042,3.394-14.804,3.394c-6.736,0-14.781-0.593-14.781-3.394c0-0.721,0.514-1.285,1.416-1.747l2.312-33.57  c-2.134-1.464-3.522-3.932-3.522-6.683v-3.497c-0.05-0.1-0.05-0.231-0.05-0.333v-27.22c0-1.438,1.183-2.623,2.621-2.623  c1.466,0,2.623,1.185,2.623,2.623v13.03c0.384-0.125,0.771-0.256,1.157-0.332V13.088c0-1.438,1.183-2.621,2.621-2.621  c1.466,0,2.621,1.182,2.621,2.621v18.148h1.235V7.436C25.031,5.97,26.214,4.812,27.678,4.812 M26.78,92.617  c4.986,0,8.558-0.412,10.589-0.823c-2.031-0.412-5.603-0.823-10.589-0.823s-8.533,0.411-10.564,0.823  C18.247,92.205,21.818,92.617,26.78,92.617 M27.678,1.812c-3.114,0-5.647,2.522-5.647,5.623v0.097  c-0.279-0.043-0.565-0.065-0.855-0.065c-3.099,0-5.621,2.521-5.621,5.621v0.086c-0.255-0.035-0.516-0.054-0.78-0.054  c-3.099,0-5.621,2.522-5.621,5.623v27.22c0,0.133,0,0.379,0.05,0.687v3.143c0,3.053,1.254,5.94,3.423,8.017l-2.108,30.616  c-1.289,1.199-1.52,2.553-1.52,3.367c0,5.619,8.546,6.394,17.781,6.394c9.247,0,17.804-0.774,17.804-6.394  c0-0.829-0.238-2.207-1.57-3.416l-2.174-31.274c2.658-1.969,6.42-5.567,6.42-10.164V32.06c0-3.59-4.495-5.392-7.011-5.392  c-0.202,0-0.411,0.011-0.625,0.033V13.113c0-3.113-2.521-5.646-5.62-5.646c-0.238,0-0.473,0.015-0.703,0.043V7.436  C33.3,4.335,30.778,1.812,27.678,1.812L27.678,1.812z"/>
</svg>