<svg xmlns="http://www.w3.org/2000/svg" xmlns:xlink="http://www.w3.org/1999/xlink" version="1.1" id="Your_Icon" x="0px" y="0px" width="100px" height="100px" viewBox="0 0 100 100" enable-background="new 0 0 100 100" xml:space="preserve">
<path fill-rule="evenodd" clip-rule="evenodd" d="M91,78H9c-1.657,0-3-1.343-3-3V23c0-1.657,1.343-3,3-3h82c1.657,0,3,1.343,3,3v52  C94,76.657,92.657,78,91,78z M37,27H13v24h24V27z M71,27H44v5h27V27z M78,37H44v5h34V37z M87,57H13v5h74V57z M87,66H13v5h74V66z   M21.553,45.464l0.031-1.208l0.459-0.134c0,0,0.184-1.881,0.184-2.183c0,0-0.704-1.511-0.857-2.384c0,0-0.583,0-0.644-0.638  c-0.092-0.672,0-1.108-0.153-1.612c-0.092-0.47,0.245-0.974,0.521-0.873c0,0-0.612-3.458,0-4.399  c0.43-0.672,1.747-2.384,4.843-2.989c0,0,0.766-0.101,1.012,0.034c0.184,0.067,0.153,0.134-0.215,0.571c0,0,1.594,1.075,2.114,2.787  c0.307,1.075,0.185,3.392,0,3.996c0,0,0.46-0.101,0.398,0.537c-0.092,1.041-0.122,2.955-0.797,2.586c0,0-0.03,2.149-0.612,2.585  c0,0-0.185,1.679,0.092,1.746h0.398c0,0,0.153,1.377,0.46,1.746c0,0,6.559,1.847,7.202,2.653c0.03,0.873,0,1.712,0,1.712H14.044  c0,0-0.092-0.302,0-1.914C15.301,47.378,21.216,45.632,21.553,45.464z"/>
</svg>