<?xml version="1.0" ?><!DOCTYPE svg  PUBLIC '-//W3C//DTD SVG 1.1//EN'  'http://www.w3.org/Graphics/SVG/1.1/DTD/svg11.dtd'><svg enable-background="new 0 0 256 256" height="256px" id="Слой_1" version="1.1" viewBox="0 0 256 256" width="256px" xml:space="preserve" xmlns="http://www.w3.org/2000/svg" xmlns:xlink="http://www.w3.org/1999/xlink"><path d="M236.165,255.916H19.834c-10.891,0-19.75-8.859-19.75-19.751V19.834c0-10.89,8.86-19.75,19.75-19.75h216.331  c10.892,0,19.751,8.86,19.751,19.75v216.331C255.916,247.057,247.057,255.916,236.165,255.916z" fill="none"/><path d="M71.556,105.928c0,0-18.023-23.151-24.894-25.728c-16.319-6.013-5.153,6.013-5.153,6.013s21.318,16.079,23.176,36.035  c1.568,16.847-0.859,28.345-0.859,28.345s-3.436,27.485-3.436,41.229s14.602,9.447,14.602,9.447  c23.191,1.719,4.295-12.023,4.295-12.023c-2.577-12.885,2.147-20.615,2.147-20.615c8.589-1.717,16.319-18.896,16.319-18.896  s23.193,0.859,34.358,0.859c11.166,0,14.604,5.154,14.604,5.154s9.02,21.472,9.02,32.639c0,11.166,1.718,12.885,10.307,12.885  c33.499-0.859,7.73-14.603,7.73-14.603c-7.73-52.396,2.361-66.138,2.361-66.138c8.59,0.859,21.258,0.966,30.277-5.476  c12.887-9.206,12.723-19.97,10.951-19.326c-12.563,2.094-19.11-14.279-22.547-15.997c-3.437-1.718-12.455-4.724-14.172-11.596  c-4.295-29.204-9.879-14.172-9.879-14.172s0.43,9.019-5.582,25.338c-6.015,16.32-23.191,25.446-23.191,25.446  S85.298,112.799,71.556,105.928z"/></svg>