<svg xmlns="http://www.w3.org/2000/svg" xmlns:xlink="http://www.w3.org/1999/xlink" version="1.0" id="Layer_1" x="0px" y="0px" width="100px" height="100px" viewBox="0 0 100 100" enable-background="new 0 0 100 100" xml:space="preserve">
<path d="M59.984,94.939c-1.78,0-3.548-1.341-5.258-2.638C53.234,91.17,51.691,90,50.5,90c-1.192,0-2.735,1.17-4.227,2.302  c-1.71,1.297-3.478,2.637-5.257,2.638c-0.256,0-0.509-0.028-0.751-0.083c-2.11-0.479-3.29-2.79-4.432-5.024  c-0.829-1.622-1.685-3.299-2.691-3.784c-0.915-0.439-2.87-0.132-4.724,0.242c-1.267,0.255-2.577,0.519-3.754,0.52  c-1.204,0-2.135-0.276-2.847-0.846c-1.666-1.33-1.728-3.901-1.788-6.389c-0.045-1.84-0.091-3.743-0.804-4.636  c-0.706-0.884-2.543-1.349-4.32-1.798c-2.421-0.612-4.925-1.245-5.857-3.177c-0.915-1.896,0.136-4.225,1.152-6.476  c0.764-1.692,1.554-3.442,1.295-4.584c-0.244-1.07-1.677-2.271-3.063-3.431C6.499,53.857,4.5,52.185,4.5,50  c0-2.185,1.999-3.858,3.932-5.476c1.386-1.16,2.819-2.359,3.062-3.43c0.259-1.141-0.531-2.891-1.295-4.584  c-1.016-2.251-2.067-4.58-1.152-6.476c0.932-1.932,3.436-2.564,5.857-3.176c1.777-0.449,3.614-0.914,4.32-1.798  c0.713-0.893,0.759-2.796,0.804-4.636c0.061-2.487,0.123-5.059,1.789-6.389c0.712-0.568,1.643-0.845,2.847-0.845  c1.178,0,2.488,0.264,3.754,0.52c1.855,0.375,3.807,0.685,4.724,0.241c1.005-0.485,1.862-2.162,2.69-3.783  c1.142-2.234,2.322-4.545,4.432-5.024c0.242-0.055,0.495-0.083,0.751-0.083c1.779,0,3.547,1.341,5.257,2.638  C47.765,8.83,49.308,10,50.5,10c1.191,0,2.734-1.17,4.227-2.302c1.71-1.297,3.479-2.638,5.258-2.638  c0.256,0,0.509,0.028,0.751,0.083c2.11,0.479,3.29,2.79,4.432,5.024c0.829,1.622,1.686,3.299,2.691,3.784  c0.916,0.442,2.868,0.133,4.724-0.241c1.267-0.255,2.576-0.52,3.755-0.52c1.203,0,2.135,0.276,2.847,0.845  c1.665,1.33,1.728,3.901,1.788,6.389c0.045,1.84,0.091,3.743,0.804,4.636c0.706,0.884,2.544,1.349,4.32,1.798  c2.422,0.612,4.925,1.245,5.856,3.176c0.915,1.896-0.136,4.225-1.152,6.476c-0.764,1.693-1.554,3.443-1.294,4.584  c0.243,1.07,1.676,2.27,3.062,3.43C94.501,46.142,96.5,47.815,96.5,50c0,2.185-1.999,3.857-3.932,5.475  c-1.386,1.16-2.819,2.36-3.062,3.431c-0.26,1.141,0.53,2.892,1.295,4.584c1.016,2.251,2.066,4.579,1.151,6.476  c-0.933,1.932-3.436,2.564-5.856,3.177c-1.777,0.449-3.614,0.914-4.32,1.798c-0.713,0.893-0.759,2.796-0.804,4.636  c-0.061,2.487-0.124,5.059-1.789,6.389c-0.712,0.569-1.644,0.846-2.848,0.846c-1.178,0-2.487-0.265-3.755-0.52  c-1.854-0.375-3.806-0.682-4.723-0.242c-1.006,0.485-1.862,2.163-2.691,3.784c-1.141,2.234-2.321,4.545-4.431,5.024  C60.493,94.911,60.24,94.939,59.984,94.939z M50.5,88c1.864,0,3.68,1.377,5.435,2.708c1.585,1.202,3.244,2.454,4.357,2.197  c1.197-0.271,2.161-2.158,3.094-3.982c0.979-1.917,1.991-3.898,3.603-4.676c0.613-0.296,1.337-0.439,2.215-0.439  c1.187,0,2.501,0.266,3.772,0.521c1.171,0.236,2.381,0.48,3.359,0.48c0.732,0,1.256-0.134,1.6-0.408  c0.937-0.748,0.988-2.846,1.037-4.875c0.053-2.171,0.107-4.416,1.241-5.835c1.126-1.41,3.295-1.959,5.393-2.489  c1.976-0.499,4.02-1.016,4.546-2.106c0.509-1.056-0.347-2.95-1.174-4.783c-0.899-1.993-1.83-4.055-1.423-5.851  c0.394-1.729,2.09-3.147,3.73-4.521c1.58-1.323,3.215-2.69,3.215-3.941s-1.635-2.619-3.216-3.942  c-1.64-1.373-3.336-2.792-3.729-4.52c-0.407-1.795,0.522-3.856,1.423-5.85c0.827-1.833,1.683-3.728,1.174-4.784  c-0.526-1.091-2.569-1.607-4.546-2.106c-2.098-0.53-4.267-1.079-5.393-2.489c-1.134-1.419-1.188-3.665-1.24-5.835  c-0.05-2.029-0.101-4.127-1.037-4.875c-0.344-0.274-0.867-0.408-1.599-0.408c-0.979,0-2.189,0.244-3.359,0.48  c-1.271,0.256-2.587,0.521-3.772,0.521c-0.878,0-1.603-0.144-2.216-0.439c-1.611-0.777-2.624-2.759-3.603-4.675  c-0.933-1.825-1.896-3.711-3.095-3.984c-1.104-0.252-2.769,0.994-4.357,2.198C54.18,10.624,52.364,12,50.5,12  c-1.865,0-3.68-1.377-5.436-2.708c-1.586-1.203-3.253-2.444-4.356-2.198c-1.198,0.272-2.162,2.159-3.094,3.984  c-0.979,1.916-1.991,3.897-3.603,4.675c-0.613,0.295-1.338,0.439-2.216,0.439c-1.187,0-2.501-0.266-3.773-0.522  c-1.17-0.236-2.381-0.48-3.359-0.48c-0.732,0-1.255,0.133-1.599,0.408c-0.937,0.748-0.988,2.846-1.037,4.875  c-0.053,2.171-0.107,4.417-1.241,5.835c-1.126,1.41-3.295,1.958-5.393,2.489c-1.976,0.5-4.02,1.016-4.545,2.106  c-0.509,1.056,0.346,2.951,1.173,4.784c0.9,1.993,1.831,4.055,1.422,5.85c-0.393,1.728-2.089,3.147-3.729,4.52  C8.135,47.381,6.5,48.749,6.5,50s1.634,2.618,3.215,3.941c1.64,1.373,3.336,2.792,3.729,4.521c0.408,1.796-0.522,3.857-1.422,5.851  c-0.827,1.833-1.683,3.728-1.173,4.783c0.526,1.091,2.569,1.607,4.545,2.106c2.098,0.53,4.267,1.079,5.393,2.489  c1.133,1.419,1.188,3.664,1.241,5.835c0.049,2.029,0.1,4.127,1.037,4.875c0.344,0.274,0.867,0.408,1.599,0.408  c0.979-0.001,2.189-0.244,3.359-0.48c1.271-0.257,2.586-0.521,3.773-0.521c0.878,0,1.603,0.144,2.216,0.439  c1.611,0.777,2.624,2.759,3.603,4.675c0.932,1.825,1.896,3.712,3.094,3.983c1.103,0.251,2.769-0.993,4.356-2.197  C46.82,89.377,48.636,88,50.5,88z"/>
<polygon points="47.417,63.164 31.626,47.374 33.041,45.959 47.417,60.336 69.543,38.209 70.957,39.624 "/>
</svg>