<?xml version="1.0" ?><svg contentScriptType="text/ecmascript" contentStyleType="text/css" enable-background="new 0 0 220 227" height="24.0px" id="Layer_1" preserveAspectRatio="xMidYMid meet" version="1.0" viewBox="106.0 94.04199981689453 24.0 24.0" width="24.0px" xml:space="preserve" xmlns="http://www.w3.org/2000/svg" xmlns:xlink="http://www.w3.org/1999/xlink" zoomAndPan="magnify"><g><g><rect fill="#434343" height="2.75" width="5.834" x="124" y="98.584"/><rect fill="#434343" height="2.75" width="5.834" x="120" y="102.584"/><rect fill="#434343" height="2.812" width="2.822" x="127.078" y="102.584"/><rect fill="#434343" height="2.791" width="3.854" x="106.084" y="106.584"/><rect fill="#434343" height="2.75" width="5.916" x="111.084" y="106.584"/><rect fill="#434343" height="2.75" width="5.916" x="118.084" y="106.584"/><rect fill="#434343" height="2.75" width="4.916" x="125.084" y="106.584"/><rect fill="#434343" height="2.75" width="5.834" x="113" y="102.584"/><rect fill="#434343" height="2.75" width="5.834" x="106" y="102.584"/><rect fill="#434343" height="2.75" width="5.834" x="117" y="98.584"/><rect fill="#434343" height="2.75" width="5.834" x="110" y="98.584"/><rect fill="#434343" height="2.75" width="3" x="106" y="98.584"/></g><rect fill="#434343" height="2.75" width="4.834" x="106" y="110.584"/><rect fill="#434343" height="2.75" width="3.834" x="112" y="110.584"/><rect fill="#434343" height="2.75" width="4.834" x="117" y="110.584"/><rect fill="#434343" height="2.916" width="6.896" x="123" y="110.584"/></g></svg>