<?xml version="1.0" encoding="utf-8"?>
<!-- Generator: Adobe Illustrator 16.0.0, SVG Export Plug-In . SVG Version: 6.00 Build 0)  -->
<!DOCTYPE svg PUBLIC "-//W3C//DTD SVG 1.1//EN" "http://www.w3.org/Graphics/SVG/1.1/DTD/svg11.dtd">
<svg version="1.1" id="Layer_1" xmlns="http://www.w3.org/2000/svg" xmlns:xlink="http://www.w3.org/1999/xlink" x="0px" y="0px"
	 width="689px" height="229px" viewBox="0 0 689 229" enable-background="new 0 0 689 229" xml:space="preserve">
<g>
	<g>
		<path d="M299.865,67.064l-7.197,33.285h1.049c12.444,0,21.291-13.344,21.291-24.739c0-8.396-4.798-15.743-16.493-15.743
			c-24.289,0-40.482,13.644-40.482,36.434c0,7.646,1.949,8.846,2.099,10.195c-10.345,0-16.043-3.748-16.043-14.543
			c0-19.941,27.588-38.982,52.626-38.982c23.54,0,34.035,11.695,34.035,23.989c0,8.846-5.397,18.142-14.993,23.689
			C328.052,103.048,333,113.393,333,125.088c0,19.342-13.344,42.881-29.836,42.881c-8.996,0-17.692-0.899-17.692-10.346
			c0-2.549,0.6-5.697,1.949-9.445c2.849,4.647,7.947,5.397,10.046,5.397c8.246,0,14.843-14.844,14.843-27.588
			c0-9.745-3.749-18.441-13.644-18.441c-1.949,0-4.798,0.15-7.497,0.45l-12.294,57.424h-21.59l20.391-95.357L299.865,67.064z"/>
		<path d="M372.885,60.467l-17.242,80.964c-0.45,2.249-0.75,3.599-0.75,4.798c0,3.299,1.649,5.548,7.497,5.548
			c5.997,0,13.794-8.396,19.791-13.194h5.098c-6.897,6.896-23.839,26.838-35.534,26.838c-11.544,0-18.591-5.098-18.591-16.343
			c0-2.249,0.3-4.798,0.899-7.646l16.643-77.965L372.885,60.467z"/>
		<path d="M442.006,90.454l-10.795,50.977c-0.301,1.649-0.6,3.299-0.6,4.647c0,3.299,1.499,5.698,7.496,5.698
			c5.998,0,13.794-8.396,19.791-13.194h5.098c-6.896,6.896-23.839,26.838-35.533,26.838c-10.196,0-17.093-3.898-18.442-12.595
			c-7.047,6.598-15.144,12.595-21.591,12.595c-11.544,0-18.741-5.098-18.741-16.343c0-2.249,0.3-4.798,0.899-7.646l10.795-50.977
			h21.591l-10.795,50.977c-0.3,1.649-0.601,3.299-0.601,4.647c0,3.299,1.5,5.698,7.497,5.698c3.149,0,6.897-2.399,10.646-5.397
			c0.15-1.5,0.449-3.149,0.899-4.948l10.796-50.977H442.006z"/>
		<path d="M540.663,141.431c-0.45,1.799-0.75,3.748-0.75,5.548c0,3.448,1.35,6.146,6.147,6.146c5.997,0,12.294-8.846,15.742-15.293
			h7.047c-6.896,8.097-20.391,27.588-32.085,27.588c-11.695,0-18.592-5.098-18.592-16.343c0-2.398,0.3-4.798,0.899-7.646
			l5.697-26.988c0.3-1.35,0.45-2.699,0.45-3.898c0-5.397-2.849-8.846-6.897-8.846c-3.298,0-5.847,0.9-8.695,2.699
			c0.449,1.799,0.749,3.448,0.749,5.248c0,1.049-0.149,2.099-0.3,3.148l-11.095,52.626h-21.74l10.795-50.977
			c0.3-1.35,0.45-2.699,0.45-3.898c0-5.397-2.85-8.846-6.897-8.846c-3.599,0-6.147,1.05-9.146,3.149l-12.895,60.573h-21.59
			l15.893-74.966h21.59l-1.648,7.946c5.997-4.348,12.895-7.946,19.341-7.946c5.548,0,11.545,4.048,14.844,9.896
			c6.597-5.248,14.543-9.896,21.89-9.896c8.247,0,17.242,8.696,17.242,18.892c0,1.199-0.149,2.249-0.3,3.448L540.663,141.431z"/>
		<path d="M582.646,90.454l-0.6,2.849c3.148-1.649,6.747-2.699,10.495-2.699c15.593,0,22.939,5.547,22.939,20.991
			c0,3.148-0.3,6.596-0.899,10.495c-4.647,32.236-17.542,43.181-32.835,43.181c-4.948,0-9.596-1.648-14.094-4.497l-7.797,36.733
			l-22.64,5.397l23.839-112.45H582.646z M595.391,123.889c1.35-6.597,1.949-11.545,1.949-15.144c0-8.996-3.599-10.795-8.396-10.795
			c-2.849,0-5.697,1.199-8.546,3.148l-10.795,50.378c3.599,2.698,7.347,2.698,9.745,2.698
			C586.845,154.175,590.443,147.728,595.391,123.889z"/>
		<path d="M673.656,141.431c-0.449,1.799-0.75,3.448-0.75,5.098c0,3.148,1.2,5.548,5.398,5.548c1.049,0,2.698,0,3.897-0.45
			c-4.197,12.895-10.495,13.794-15.593,13.794c-8.696,0-13.344-4.498-14.843-11.395c-4.498,6.146-11.245,12.294-20.392,12.294
			c-14.394,0-18.592-10.195-18.592-19.041c0-25.789,9.296-56.675,39.283-56.675c3.598,0,7.347,1.499,10.045,3.748l0.899-3.898h21.44
			L673.656,141.431z M660.612,101.698C658.213,99.6,655.364,99,653.266,99c-11.245,0-20.241,23.839-20.241,44.23
			c0,8.996,4.948,10.646,8.696,10.646c3.448,0,6.747-3.448,9.746-7.646c0-1.499,0.3-3.148,0.749-4.798L660.612,101.698z"/>
	</g>
	<polygon points="121.638,53.333 138.778,38.506 81.099,3 8.181,74.555 8.181,177.944 80.553,224.47 93.613,201.072 93.068,124.074 
		147.755,71.834 198.636,103.396 198.636,171.415 158.096,145.021 157.315,83.947 148.981,78.365 134.697,93.602 134.154,156.994 
		201.628,200.255 220.947,180.666 219.858,91.424 146.669,42.721 72.391,115.366 71.847,192.91 30.491,165.974 31.035,82.175 
		84.363,29.936 	"/>
</g>
</svg>
