<?xml version="1.0" encoding="utf-8"?>
<!-- Generator: Adobe Illustrator 16.0.0, SVG Export Plug-In . SVG Version: 6.00 Build 0)  -->
<!DOCTYPE svg PUBLIC "-//W3C//DTD SVG 1.1//EN" "http://www.w3.org/Graphics/SVG/1.1/DTD/svg11.dtd">
<svg version="1.1" id="Layer_1" xmlns="http://www.w3.org/2000/svg" xmlns:xlink="http://www.w3.org/1999/xlink" x="0px" y="0px"
	 width="637.058px" height="532px" viewBox="0 0 637.058 532" enable-background="new 0 0 637.058 532" xml:space="preserve">
<g>
	<g>
		<path d="M85.132,331.037l-10.329,47.77h1.506c17.86,0,30.555-19.151,30.555-35.505c0-12.05-6.886-22.594-23.669-22.594
			c-34.859,0-58.099,19.581-58.099,52.289c0,10.974,2.797,12.695,3.013,14.632c-14.848,0-23.024-5.38-23.024-20.872
			c0-28.619,39.593-55.947,75.528-55.947c33.783,0,48.846,16.784,48.846,34.429c0,12.695-7.747,26.037-21.518,33.998
			c17.645,3.443,24.746,18.291,24.746,35.075c0,27.758-19.151,61.541-42.821,61.541c-12.911,0-25.391-1.291-25.391-14.848
			c0-3.658,0.861-8.177,2.797-13.557c4.088,6.671,11.404,7.747,14.417,7.747c11.835,0,21.303-21.303,21.303-39.593
			c0-13.987-5.379-26.468-19.582-26.468c-2.797,0-6.886,0.216-10.759,0.646l-17.645,82.414H24.021L53.285,335.34L85.132,331.037z"/>
		<path d="M189.923,321.568l-24.746,116.197c-0.646,3.228-1.076,5.164-1.076,6.886c0,4.734,2.367,7.962,10.759,7.962
			c8.607,0,19.796-12.051,28.404-18.937h7.316c-9.898,9.898-34.213,38.518-50.998,38.518c-16.569,0-26.682-7.316-26.682-23.454
			c0-3.229,0.43-6.886,1.291-10.975l23.885-111.894L189.923,321.568z"/>
		<path d="M289.121,364.604l-15.493,73.161c-0.43,2.367-0.861,4.734-0.861,6.671c0,4.733,2.152,8.177,10.759,8.177
			c8.607,0,19.796-12.051,28.403-18.937h7.316c-9.898,9.898-34.214,38.518-50.998,38.518c-14.632,0-24.531-5.595-26.467-18.075
			c-10.113,9.468-21.733,18.075-30.986,18.075c-16.569,0-26.897-7.316-26.897-23.454c0-3.229,0.431-6.886,1.292-10.975
			l15.493-73.161h30.986l-15.493,73.161c-0.43,2.367-0.86,4.734-0.86,6.671c0,4.733,2.152,8.177,10.759,8.177
			c4.519,0,9.898-3.443,15.278-7.747c0.215-2.151,0.646-4.519,1.291-7.101l15.493-73.161H289.121z"/>
		<path d="M430.707,437.766c-0.646,2.582-1.076,5.38-1.076,7.962c0,4.949,1.937,8.822,8.822,8.822
			c8.607,0,17.645-12.695,22.594-21.948h10.113c-9.898,11.619-29.264,39.593-46.048,39.593s-26.683-7.316-26.683-23.454
			c0-3.443,0.431-6.886,1.291-10.975l8.177-38.732c0.431-1.937,0.646-3.873,0.646-5.595c0-7.746-4.088-12.695-9.898-12.695
			c-4.733,0-8.392,1.291-12.479,3.873c0.646,2.582,1.075,4.949,1.075,7.531c0,1.507-0.215,3.013-0.43,4.519l-15.924,75.528h-31.201
			l15.493-73.161c0.431-1.937,0.646-3.873,0.646-5.595c0-7.746-4.088-12.695-9.898-12.695c-5.164,0-8.822,1.506-13.126,4.519
			l-18.505,86.933h-30.986l22.81-107.59h30.985l-2.367,11.404c8.607-6.24,18.506-11.404,27.759-11.404
			c7.961,0,16.568,5.81,21.303,14.202c9.468-7.531,20.872-14.202,31.416-14.202c11.835,0,24.745,12.48,24.745,27.112
			c0,1.722-0.215,3.229-0.43,4.949L430.707,437.766z"/>
		<path d="M490.954,364.604l-0.86,4.089c4.519-2.367,9.683-3.874,15.062-3.874c22.379,0,32.922,7.962,32.922,30.126
			c0,4.519-0.43,9.468-1.291,15.062c-6.67,46.264-25.176,61.972-47.124,61.972c-7.101,0-13.771-2.367-20.227-6.456l-11.189,52.72
			l-32.492,7.746l34.214-161.385H490.954z M509.244,412.59c1.937-9.468,2.798-16.569,2.798-21.733
			c0-12.911-5.164-15.493-12.05-15.493c-4.089,0-8.177,1.722-12.266,4.52l-15.493,72.3c5.165,3.873,10.544,3.873,13.987,3.873
			C496.979,456.056,502.144,446.803,509.244,412.59z"/>
		<path d="M621.564,437.766c-0.646,2.582-1.075,4.949-1.075,7.316c0,4.519,1.721,7.961,7.746,7.961c1.506,0,3.873,0,5.595-0.646
			c-6.025,18.506-15.062,19.797-22.379,19.797c-12.48,0-19.15-6.455-21.303-16.354c-6.455,8.822-16.139,17.645-29.265,17.645
			c-20.657,0-26.682-14.632-26.682-27.328c0-37.011,13.341-81.338,56.377-81.338c5.164,0,10.544,2.152,14.417,5.38l1.291-5.595
			h30.771L621.564,437.766z M602.844,380.743c-3.442-3.013-7.531-3.873-10.543-3.873c-16.139,0-29.05,34.213-29.05,63.478
			c0,12.911,7.102,15.278,12.48,15.278c4.949,0,9.684-4.949,13.987-10.975c0-2.151,0.43-4.519,1.075-6.886L602.844,380.743z"/>
	</g>
	<polygon points="334.347,71.787 358.453,50.935 277.334,1 174.784,101.633 174.784,247.039 276.567,312.471 294.935,279.563 
		294.168,171.275 371.078,97.806 442.636,142.194 442.636,237.855 385.621,200.735 384.524,114.842 372.802,106.991 352.714,128.42 
		351.951,217.573 446.844,278.415 474.014,250.864 472.48,125.358 369.553,56.863 265.088,159.03 264.323,268.084 206.161,230.203 
		206.926,112.349 281.925,38.881 	"/>
</g>
</svg>
